<svg width="18" height="18" fill="none" xmlns="http://www.w3.org/2000/svg"><path d="M7.263 8.03s1.703-.125 1.703-2.097C8.966 3.963 7.573 3 5.808 3H0v11.017h5.808s3.546.11 3.546-3.252c0 0 .154-2.735-2.09-2.735zM5.39 4.958h.418s.79 0 .79 1.146-.465 1.313-.991 1.313H2.559V4.958H5.39zm.254 7.1H2.559V9.114h3.25s1.176-.015 1.176 1.513c0 1.289-.88 1.422-1.341 1.431zm8.438-6.255c-4.292 0-4.288 4.233-4.288 4.233s-.295 4.21 4.288 4.21c0 0 3.82.216 3.82-2.928h-1.965s.066 1.184-1.79 1.184c0 0-1.964.13-1.964-1.917h5.784s.632-4.782-3.885-4.782zm-1.92 3.311s.24-1.698 1.964-1.698 1.702 1.698 1.702 1.698h-3.666zm4.123-4.108h-4.604V3.649h4.604v1.357z" fill="#A53DFF"/></svg>