<svg width="18" height="18" fill="none" xmlns="http://www.w3.org/2000/svg"><g clip-path="url(#clip0_1_523)"><path d="M6 9a3 3 0 116 0 3 3 0 01-6 0zM4.38 9a4.621 4.621 0 109.242 0A4.621 4.621 0 004.38 9zm8.345-4.805a1.08 1.08 0 102.161 0 1.08 1.08 0 00-2.16 0zm-7.36 12.13c-.878-.04-1.355-.185-1.672-.309a2.8 2.8 0 01-1.035-.673 2.782 2.782 0 01-.673-1.035c-.124-.317-.27-.793-.31-1.67-.043-.95-.052-1.235-.052-3.638 0-2.403.01-2.688.052-3.637.04-.878.187-1.354.31-1.671a2.8 2.8 0 01.673-1.036 2.79 2.79 0 011.035-.673c.317-.123.794-.27 1.672-.31.948-.043 1.233-.052 3.636-.052s2.688.01 3.637.053c.877.04 1.354.186 1.671.31.42.162.72.358 1.036.672.314.315.51.615.673 1.036.123.317.27.793.31 1.67.043.95.052 1.235.052 3.638 0 2.403-.009 2.688-.053 3.637-.04.877-.186 1.354-.31 1.671-.163.42-.358.72-.672 1.035-.315.315-.615.51-1.036.673-.317.124-.793.27-1.67.31-.95.043-1.235.052-3.638.052-2.403 0-2.688-.009-3.636-.052zM5.29.056C4.33.098 3.677.25 3.105.473A4.416 4.416 0 001.51 1.51 4.39 4.39 0 00.472 3.104C.25 3.677.098 4.33.055 5.29.01 6.25 0 6.556 0 9s.01 2.75.055 3.71c.043.959.195 1.613.418 2.185A4.4 4.4 0 001.51 16.49c.5.5 1.001.808 1.594 1.038.573.223 1.226.375 2.185.418C6.25 17.99 6.556 18 9 18c2.445 0 2.75-.01 3.71-.055.959-.043 1.613-.195 2.185-.418a4.427 4.427 0 001.594-1.038c.5-.5.808-1.002 1.038-1.594.223-.572.376-1.226.418-2.184C17.99 11.75 18 11.444 18 9s-.01-2.75-.053-3.71c-.044-.959-.196-1.613-.419-2.185A4.426 4.426 0 0016.49 1.51c-.5-.5-1.002-.809-1.593-1.038C14.323.25 13.669.097 12.71.055 11.751.01 11.445 0 9.001 0 6.556 0 6.25.01 5.29.055" fill="#A53DFF"/></g><defs><clipPath id="clip0_1_523"><path fill="#fff" d="M0 0h18v18H0z"/></clipPath></defs></svg>