<svg width="18" height="18" fill="none" xmlns="http://www.w3.org/2000/svg"><g clip-path="url(#clip0_1_526)"><path d="M0 2.09C0 1.486.203.986.608.59 1.014.198 1.541 0 2.19 0c.637 0 1.153.194 1.547.582.405.4.608.92.608 1.563 0 .582-.197 1.067-.591 1.455-.405.4-.938.6-1.599.6h-.017C1.5 4.2.985 4 .591 3.6.197 3.2 0 2.697 0 2.09zM.226 18V5.854h3.857V18H.226zm5.994 0h3.857v-6.782c0-.424.047-.752.14-.982.161-.412.407-.76.738-1.045.33-.285.744-.428 1.242-.428 1.297 0 1.946.916 1.946 2.746v6.49H18v-6.963c0-1.794-.405-3.154-1.216-4.082-.811-.927-1.882-1.39-3.214-1.39-1.495 0-2.659.672-3.493 2.018v.036h-.017l.017-.036V5.854H6.22c.023.388.035 1.594.035 3.618 0 2.025-.012 4.867-.035 8.528z" fill="#A53DFF"/></g><defs><clipPath id="clip0_1_526"><path fill="#fff" d="M0 0h18v18H0z"/></clipPath></defs></svg>