<svg width="32" height="32" fill="none" xmlns="http://www.w3.org/2000/svg"><path d="M29.333 9.653a1.335 1.335 0 00-.386-.946l-5.654-5.654a1.333 1.333 0 00-.946-.386 1.333 1.333 0 00-.947.386l-3.773 3.774L3.053 21.4a1.333 1.333 0 00-.386.947V28A1.333 1.333 0 004 29.333h5.653a1.333 1.333 0 001.014-.386L25.16 14.373l3.787-3.706c.121-.13.22-.278.293-.44a1.338 1.338 0 000-.32.939.939 0 000-.187l.093-.067zM9.107 26.667H5.333v-3.774l13.24-13.24 3.774 3.774-13.24 13.24zm15.12-15.12l-3.774-3.774 1.894-1.88 3.76 3.76-1.88 1.894z" fill="#A53DFF"/></svg>